<?xml version="1.0" encoding="utf-8"?>
<!-- Generator: Adobe Illustrator 22.0.0, SVG Export Plug-In . SVG Version: 6.00 Build 0)  -->
<svg version="1.1" id="图层_1" xmlns="http://www.w3.org/2000/svg" xmlns:xlink="http://www.w3.org/1999/xlink" x="0px" y="0px"
	 viewBox="0 0 1024 1024" style="enable-background:new 0 0 1024 1024;" xml:space="preserve">
<style type="text/css">
	.st0{display:none;fill:#FFFFFF;stroke:#231815;stroke-width:0.1;stroke-miterlimit:10;}
	.st1{fill:url(#SVGID_1_);}
	.st2{fill:#E6EAF0;}
	.st3{fill:#D0D6E0;}
	.st4{fill:url(#SVGID_2_);}
	.st5{fill:url(#SVGID_3_);}
	.st6{fill:url(#SVGID_4_);}
	.st7{fill:url(#SVGID_5_);}
	.st8{fill:url(#SVGID_6_);}
	.st9{fill:url(#SVGID_7_);}
	.st10{fill:url(#SVGID_8_);}
	.st11{fill:url(#SVGID_9_);}
	.st12{fill:url(#SVGID_10_);}
	.st13{fill:url(#SVGID_11_);}
	.st14{fill:url(#SVGID_12_);}
	.st15{fill:url(#SVGID_13_);}
	.st16{fill:url(#SVGID_14_);}
	.st17{fill:url(#SVGID_15_);}
	.st18{fill:url(#SVGID_16_);}
	.st19{opacity:0.8;fill:url(#SVGID_17_);}
</style>
<rect x="-1" class="st0" width="1025.5" height="1025.5"/>
<g>
	<linearGradient id="SVGID_1_" gradientUnits="userSpaceOnUse" x1="512.9998" y1="666.8418" x2="512.9998" y2="982.5475">
		<stop  offset="0" style="stop-color:#DEE3F0"/>
		<stop  offset="3.981841e-02" style="stop-color:#E1E6F1;stop-opacity:0.9602"/>
		<stop  offset="0.3162" style="stop-color:#F2F4F9;stop-opacity:0.6838"/>
		<stop  offset="0.6198" style="stop-color:#FCFCFE;stop-opacity:0.3802"/>
		<stop  offset="1" style="stop-color:#FFFFFF;stop-opacity:0"/>
	</linearGradient>
	<ellipse class="st1" cx="513" cy="824.7" rx="475.9" ry="157.9"/>
	<g>
		<path class="st2" d="M192.7,678.7c0,23.9-19.3,43.2-43.2,43.2s-43.2-19.3-43.2-43.2c0-23.9,19.3-71.7,43.2-71.7
			S192.7,654.8,192.7,678.7z"/>
		<path class="st3" d="M169.2,672.8c-1.4-0.7-3-0.1-3.7,1.3L152.2,701v-50.8c0-1.5-1.2-2.8-2.8-2.8c-1.5,0-2.8,1.2-2.8,2.8v26
			L132.5,662c-1.1-1.1-2.8-1.1-3.9,0c-1.1,1.1-1.1,2.8,0,3.9l17.1,17.1c0.3,0.3,0.6,0.3,1,0.4v75.2c0,1.5,1.2,2.8,2.8,2.8
			c1.5,0,2.8-1.2,2.8-2.8v-45.2l18.2-36.9C171.1,675.1,170.6,673.5,169.2,672.8z"/>
	</g>
	<g>
		<path class="st2" d="M881.7,683.9c0,19.5-15.8,35.3-35.3,35.3c-19.5,0-35.3-15.8-35.3-35.3c0-19.5,15.8-58.6,35.3-58.6
			C865.9,625.4,881.7,664.4,881.7,683.9z"/>
		<path class="st3" d="M862.6,679.2c-1.1-0.5-2.5-0.1-3,1l-10.8,22v-41.5c0-1.2-1-2.3-2.3-2.3s-2.3,1-2.3,2.3v21.3l-11.6-11.6
			c-0.9-0.9-2.3-0.9-3.2,0c-0.9,0.9-0.9,2.3,0,3.2l14,14c0.2,0.2,0.5,0.2,0.8,0.3v61.4c0,1.2,1,2.3,2.3,2.3s2.3-1,2.3-2.3v-37
			l14.9-30.2C864.1,681.1,863.7,679.7,862.6,679.2z"/>
	</g>
	<g>
		<path class="st2" d="M928.5,770.1c0,14.5-11.8,26.3-26.3,26.3c-14.5,0-26.3-11.8-26.3-26.3s11.8-43.7,26.3-43.7
			C916.7,726.4,928.5,755.6,928.5,770.1z"/>
		<path class="st3" d="M914.2,766.5c-0.8-0.4-1.8-0.1-2.3,0.8l-8.1,16.4v-31c0-0.9-0.8-1.7-1.7-1.7c-0.9,0-1.7,0.8-1.7,1.7v15.9
			l-8.7-8.7c-0.7-0.7-1.7-0.7-2.4,0c-0.7,0.7-0.7,1.7,0,2.4l10.4,10.4c0.2,0.2,0.4,0.2,0.6,0.2v45.8c0,0.9,0.8,1.7,1.7,1.7
			c0.9,0,1.7-0.8,1.7-1.7v-27.6l11.1-22.5C915.4,767.9,915,766.9,914.2,766.5z"/>
	</g>
</g>
<g>
	<linearGradient id="SVGID_2_" gradientUnits="userSpaceOnUse" x1="332.8282" y1="760.3292" x2="332.8282" y2="722.2387">
		<stop  offset="0" style="stop-color:#BCC0CC"/>
		<stop  offset="0.9894" style="stop-color:#FFFFFF;stop-opacity:0"/>
	</linearGradient>
	<polygon class="st4" points="338.4,760.3 282.8,726.7 314.9,722.2 382.8,756.2 	"/>
	<linearGradient id="SVGID_3_" gradientUnits="userSpaceOnUse" x1="469.0902" y1="760.3292" x2="469.0902" y2="711.4995">
		<stop  offset="0" style="stop-color:#BCC0CC"/>
		<stop  offset="0.9894" style="stop-color:#FFFFFF;stop-opacity:0"/>
	</linearGradient>
	<polyline class="st5" points="449.6,760.3 373,711.5 518,711.5 565.2,760.3 	"/>
	<linearGradient id="SVGID_4_" gradientUnits="userSpaceOnUse" x1="714.7909" y1="766.5892" x2="725.0718" y2="733.8448">
		<stop  offset="0" style="stop-color:#BCC0CC"/>
		<stop  offset="0.9894" style="stop-color:#FFFFFF;stop-opacity:0"/>
	</linearGradient>
	<polygon class="st6" points="665.6,727.3 729.4,771.2 774.9,771.2 710,729.1 	"/>
	<g>
		<g>
			
				<linearGradient id="SVGID_5_" gradientUnits="userSpaceOnUse" x1="709.6025" y1="332.0807" x2="709.6025" y2="170.2495" gradientTransform="matrix(0.9493 0.3144 -0.3144 0.9493 177.8726 -203.8375)">
				<stop  offset="0" style="stop-color:#ECF0F7"/>
				<stop  offset="0.3451" style="stop-color:#E9EDF5"/>
				<stop  offset="0.5923" style="stop-color:#E0E5EE"/>
				<stop  offset="0.8081" style="stop-color:#D0D7E3"/>
				<stop  offset="1" style="stop-color:#BBC4D4"/>
			</linearGradient>
			<circle class="st7" cx="772.5" cy="257.7" r="80.9"/>
			
				<linearGradient id="SVGID_6_" gradientUnits="userSpaceOnUse" x1="709.6024" y1="324.921" x2="709.6024" y2="231.3456" gradientTransform="matrix(0.9493 0.3144 -0.3144 0.9493 177.8726 -203.8375)">
				<stop  offset="0" style="stop-color:#E8EEF7"/>
				<stop  offset="1" style="stop-color:#D4D8E6"/>
			</linearGradient>
			<path class="st8" d="M927.8,337.5c8.1-24.5-58.6-68.7-149.1-98.7c-90.5-30-170.4-34.4-178.5-9.8l-2.3,6.8l1.9,0.6
				c5,25.3,67.5,64.1,149.4,91.2c81.9,27.1,155.2,33.3,174.3,16l1.9,0.6L927.8,337.5z"/>
			
				<linearGradient id="SVGID_7_" gradientUnits="userSpaceOnUse" x1="709.6025" y1="332.0807" x2="709.6025" y2="238.5054" gradientTransform="matrix(0.9493 0.3144 -0.3144 0.9493 177.8726 -203.8375)">
				<stop  offset="0" style="stop-color:#DCE2EB"/>
				<stop  offset="1" style="stop-color:#B8BDCC"/>
			</linearGradient>
			<path class="st9" d="M925.6,344.3c-8.1,24.5-88,20.1-178.5-9.8c-90.5-30-157.2-74.1-149.1-98.7s88-20.1,178.5,9.8
				S933.7,319.8,925.6,344.3z"/>
			
				<linearGradient id="SVGID_8_" gradientUnits="userSpaceOnUse" x1="500.4621" y1="419.8582" x2="909.2811" y2="419.8582" gradientTransform="matrix(0.9493 0.3144 -0.3144 0.9493 177.8726 -203.8375)">
				<stop  offset="0" style="stop-color:#D1DAE8"/>
				<stop  offset="0.497" style="stop-color:#FFFFFF;stop-opacity:0"/>
				<stop  offset="1" style="stop-color:#C7CFD9"/>
			</linearGradient>
			<polygon class="st10" points="480.5,474.1 684.2,264.4 838.8,315.6 866.7,608.4 			"/>
			
				<linearGradient id="SVGID_9_" gradientUnits="userSpaceOnUse" x1="709.6025" y1="307.2347" x2="709.6025" y2="263.3513" gradientTransform="matrix(0.9493 0.3144 -0.3144 0.9493 177.8726 -203.8375)">
				<stop  offset="0" style="stop-color:#9FACC2"/>
				<stop  offset="1" style="stop-color:#B8BDCC"/>
			</linearGradient>
			<path class="st11" d="M838.6,315.5c-3.8,11.5-41.3,9.4-83.7-4.6s-73.7-34.8-69.9-46.3c3.8-11.5,41.3-9.4,83.7,4.6
				C811.1,283.3,842.4,304,838.6,315.5z"/>
		</g>
		<linearGradient id="SVGID_10_" gradientUnits="userSpaceOnUse" x1="275.6592" y1="760.3292" x2="275.6592" y2="461.3033">
			<stop  offset="0" style="stop-color:#8999AD"/>
			<stop  offset="1" style="stop-color:#BDC7D9"/>
		</linearGradient>
		<polygon class="st12" points="375.7,756.2 343.3,462.4 350.3,461.3 343.1,461.3 343.1,461.3 305.9,465.4 323.5,625.6 230.6,635.8 
			213,476.8 220.1,475.7 212.9,475.7 175.6,479.8 194.1,647.3 227.3,673.9 234.5,673.9 234.2,673.1 327.7,662.8 338.4,760.3 
			345.6,760.3 345.6,759.5 		"/>
		<linearGradient id="SVGID_11_" gradientUnits="userSpaceOnUse" x1="282.8187" y1="760.3292" x2="282.8187" y2="461.3033">
			<stop  offset="0" style="stop-color:#ABB8C9"/>
			<stop  offset="1" style="stop-color:#CFD5E0"/>
		</linearGradient>
		<path class="st13" d="M313.1,465.4l37.3-4.1l32.5,294.9l-37.3,4.1l-10.7-97.5l-100.4,11.1l-33.2-26.6l-18.5-167.5l37.3-4.1
			l17.7,160.2l93-10.2L313.1,465.4z"/>
		
			<linearGradient id="SVGID_12_" gradientUnits="userSpaceOnUse" x1="748.4916" y1="753.1801" x2="748.4916" y2="454.1542" gradientTransform="matrix(0.9541 0.2996 -0.2996 0.9541 181.0714 -190.4181)">
			<stop  offset="0" style="stop-color:#8999AD"/>
			<stop  offset="1" style="stop-color:#BDC7D9"/>
		</linearGradient>
		<polygon class="st14" points="766.2,778.4 823.3,488.5 830.3,489.5 823.5,487.3 823.5,487.3 786.8,480.1 755.6,638.2 663.9,620.1 
			694.8,463.1 701.8,464.1 695,462 658.2,454.8 625.6,620.1 649.3,655.4 656.2,657.6 656.1,656.8 748.4,675 729.4,771.2 
			736.3,773.3 736.5,772.6 		"/>
		
			<linearGradient id="SVGID_13_" gradientUnits="userSpaceOnUse" x1="755.651" y1="753.1801" x2="755.651" y2="454.1542" gradientTransform="matrix(0.9541 0.2996 -0.2996 0.9541 181.0714 -190.4181)">
			<stop  offset="0" style="stop-color:#ABB8C9"/>
			<stop  offset="1" style="stop-color:#CFD5E0"/>
		</linearGradient>
		<path class="st15" d="M793.6,482.2l36.8,7.2l-57.3,291.1l-36.8-7.2l19-96.2l-99.1-19.5l-23.7-35.3L665,456.9l36.8,7.2l-31.1,158.1
			l91.8,18.1L793.6,482.2z"/>
		<linearGradient id="SVGID_14_" gradientUnits="userSpaceOnUse" x1="504.0135" y1="760.3292" x2="504.0135" y2="463.226">
			<stop  offset="0" style="stop-color:#8999AD"/>
			<stop  offset="1" style="stop-color:#BDC7D9"/>
		</linearGradient>
		<path class="st16" d="M450,463.2h108.4l29.7,30.1v237.4L558,760.3H449.6l-29.7-29.7V492.9L450,463.2z M550.6,722.8V500.7h-93.1
			v222.1H550.6z"/>
		<linearGradient id="SVGID_15_" gradientUnits="userSpaceOnUse" x1="511.1729" y1="760.3292" x2="511.1729" y2="463.226">
			<stop  offset="0" style="stop-color:#ABB8C9"/>
			<stop  offset="1" style="stop-color:#CFD5E0"/>
		</linearGradient>
		<path class="st17" d="M457.2,463.2h108.4l29.7,30.1v237.4l-30.1,29.7H456.8l-29.7-29.7V492.9L457.2,463.2z M557.7,722.8V500.7
			h-93.1v222.1H557.7z"/>
		<linearGradient id="SVGID_16_" gradientUnits="userSpaceOnUse" x1="201.0635" y1="312.1586" x2="201.0635" y2="279.0112">
			<stop  offset="0" style="stop-color:#DCE2EB"/>
			<stop  offset="1" style="stop-color:#B8BDCC"/>
		</linearGradient>
		<path class="st18" d="M203.4,310.7c0,0-20.6-29.2-77,1.4c0,0.1,32.2-36.2,72.8-19.9c-1.2,0.8,35.9-27.2,76.4-4.2
			C275.6,287.2,210,277.3,203.4,310.7z"/>
		
			<linearGradient id="SVGID_17_" gradientUnits="userSpaceOnUse" x1="266.8136" y1="468.9041" x2="266.8136" y2="446.8325" gradientTransform="matrix(0.9561 0.293 -0.293 0.9561 162.7673 -168.9461)">
			<stop  offset="0" style="stop-color:#DCE2EB"/>
			<stop  offset="1" style="stop-color:#B8BDCC"/>
		</linearGradient>
		<path class="st19" d="M282.3,357.1c0,0-7.4-22.6-49.3-14.1c0,0,27.6-16.8,50.2,1.6c-0.9,0.3,28.1-10.3,49.5,12.2
			C332.8,356.2,293,337.1,282.3,357.1z"/>
	</g>
</g>
</svg>
