<svg xmlns="http://www.w3.org/2000/svg" width="512" height="512" viewBox="0 0 512 512" version="1.1">
	<path d="M 236 0.578 C 196.786 5.033, 171.315 12.198, 141.602 27.133 C 115.614 40.196, 97.531 53.414, 75.472 75.472 C 53.420 97.525, 40.247 115.544, 27.099 141.643 C 14.389 166.871, 7.014 190.760, 1.828 223.500 C 0.141 234.149, 0.141 277.851, 1.828 288.500 C 9.556 337.287, 24.614 373.869, 52.130 410.708 C 61.542 423.307, 88.693 450.458, 101.292 459.870 C 132.922 483.495, 168.848 499.770, 205 506.849 C 226.011 510.963, 231.302 511.439, 256 511.439 C 280.698 511.439, 285.989 510.963, 307 506.849 C 343.152 499.770, 379.078 483.495, 410.708 459.870 C 423.307 450.458, 450.458 423.307, 459.870 410.708 C 486.772 374.692, 502.855 336.240, 509.488 292.078 C 510.320 286.542, 511 280.012, 511 277.566 C 511 275.119, 511.450 272.840, 512 272.500 C 512.603 272.127, 513 265.137, 513 254.882 C 513 243.803, 512.652 238.097, 512 238.500 C 511.389 238.878, 511 237.342, 511 234.552 C 511 232.041, 510.320 225.458, 509.488 219.922 C 502.855 175.760, 486.772 137.308, 459.870 101.292 C 450.458 88.693, 423.307 61.542, 410.708 52.130 C 374.818 25.322, 337.371 9.613, 292.323 2.466 C 282.994 0.986, 243.934 -0.324, 236 0.578 M 235.329 20.019 C 177.756 25.621, 125.063 50.993, 85.414 92.204 C 56.384 122.378, 35.165 161.206, 25.684 201.500 C 20.919 221.753, 19.698 232.868, 19.698 256 C 19.698 294.803, 26.658 325.146, 43.439 359.500 C 66.971 407.673, 104.357 445.057, 152.500 468.555 C 175.648 479.852, 195.136 485.978, 221.299 490.180 C 240.039 493.190, 271.961 493.190, 290.701 490.180 C 316.946 485.965, 336.609 479.787, 359.500 468.564 C 407.946 444.813, 444.821 407.942, 468.575 359.500 C 485.171 325.656, 492.395 294.267, 492.395 256 C 492.395 217.733, 485.171 186.344, 468.575 152.500 C 455.988 126.831, 443.399 109.237, 423.081 88.919 C 402.763 68.601, 385.169 56.012, 359.500 43.425 C 336.717 32.253, 314.297 25.293, 289 21.540 C 276.079 19.623, 247.673 18.818, 235.329 20.019 M 238.500 40.615 C 184.076 46.326, 140.741 66.495, 103.724 103.340 C 64.359 142.524, 42.725 191.902, 40.346 248 C 37.204 322.105, 73.603 393.254, 136.109 435.184 C 146.732 442.311, 161.835 450.498, 162.721 449.612 C 163.387 448.946, 170.150 321.996, 169.601 320.469 C 169.398 319.902, 166.591 318.617, 163.365 317.614 C 133.212 308.235, 113.457 279.103, 108.928 237.340 C 106.863 218.294, 108.778 202.291, 115.075 185.961 C 127.843 152.852, 158.886 128.469, 185.975 130.269 C 202.314 131.355, 214.663 137.663, 229.500 152.500 C 241.522 164.522, 247.781 174.569, 253.171 190.500 C 257.919 204.529, 259.395 215.326, 258.502 229.500 C 256.715 257.869, 248.629 280.754, 234.572 297.229 C 226.807 306.329, 219.046 311.664, 206.505 316.524 C 199.866 319.096, 196.995 320.703, 196.984 321.853 C 196.943 326.207, 204.152 463.646, 204.473 464.627 C 204.889 465.896, 222.870 469.463, 236.500 470.981 C 260.203 473.621, 289.511 470.770, 315.750 463.271 C 324.319 460.822, 325 460.438, 325.007 458.064 C 325.010 456.654, 326.357 430.075, 328 399 C 329.643 367.925, 330.990 339.949, 330.993 336.832 L 331 331.163 324.603 329.034 C 312.477 324.999, 299.878 315.915, 292.493 305.883 C 286.364 297.558, 285.540 291.731, 286.357 262.500 C 287.172 233.364, 291.058 189.100, 297.162 139.426 L 298.321 130 305.160 130 L 312 130 312 202.500 L 312 275 318.500 275 L 325 275 325 202.500 L 325 130 332.500 130 L 340 130 340 202.500 L 340 275 346.500 275 L 353 275 353 202.500 L 353 130 360.500 130 L 368 130 368 202.500 L 368 275 375 275 L 382 275 382 202.500 L 382 130 386.840 130 L 391.679 130 392.838 139.426 C 398.942 189.100, 402.828 233.364, 403.643 262.500 C 404.460 291.731, 403.636 297.558, 397.507 305.883 C 390.002 316.078, 377.240 325.197, 364.926 329.163 L 358.219 331.323 358.631 336.912 C 358.858 339.985, 360.191 364.769, 361.593 391.988 C 362.995 419.206, 364.309 441.642, 364.512 441.846 C 365.749 443.082, 386.435 428.418, 399.186 417.267 C 447.047 375.411, 473.884 313.119, 471.680 249 C 469.753 192.965, 448.108 143.129, 408.489 103.511 C 375.483 70.505, 334.477 49.581, 288.981 42.530 C 278.893 40.966, 246.763 39.747, 238.500 40.615 M 135.858 192.713 C 127.769 202.227, 121.315 225.614, 122.256 242 C 123.129 257.200, 131.307 276.678, 141.481 287.789 C 147.686 294.564, 157.949 302, 161.096 302 C 163.618 302, 164.413 300.218, 162.839 298.094 C 162.103 297.099, 159.338 293.409, 156.696 289.893 C 150.470 281.608, 147.025 274.298, 141.346 257.331 L 136.718 243.500 136.754 228.500 C 136.780 217.898, 137.313 211.155, 138.571 205.500 C 140.860 195.211, 140.952 191.640, 138.938 191.238 C 138.080 191.066, 136.693 191.730, 135.858 192.713 M 0.411 256 C 0.411 265.625, 0.561 269.563, 0.745 264.750 C 0.928 259.938, 0.928 252.062, 0.745 247.250 C 0.561 242.438, 0.411 246.375, 0.411 256" stroke="none" fill="black" fill-rule="evenodd"/>
</svg>